<svg xmlns="http://www.w3.org/2000/svg" viewBox="0 0 504.55 281.49"><defs><style>.cls-1,.cls-2,.cls-3{fill:#222831;}.cls-2{stroke:#fff;stroke-miterlimit:10;}.cls-3{font-size:55px;font-family:Roboto-Regular, Roboto;letter-spacing:-0.07em;}.cls-4{letter-spacing:-0.08em;}.cls-5{letter-spacing:-0.08em;}</style></defs><title>Mi-logo-blue</title><g id="Capa_2" data-name="Capa 2"><g id="Capa_1-2" data-name="Capa 1"><path class="cls-1" d="M39.72,94.51c-.17,7.75,2.55,10.8,4.73,13.26A14.15,14.15,0,0,1,46.22,110a19.64,19.64,0,0,1,2.18,6.64c9,56.76,11,64.49,33.89,77,10.94,6,33.43,10,56,10,17.57,0,43-2.4,64.06-13.85,30.75-16.68,42.21-74.25,42.75-77.15,0-.29.94-7.16,15-7.16h.87c13.33,0,14.25,6.88,14.34,7.62.48,2.45,11.94,60,42.69,76.7C339.07,201.3,364.45,203.7,382,203.7c22.54,0,45-4,56-10,22.86-12.51,24.89-20.25,33.89-77a19.56,19.56,0,0,1,2.18-6.65,14.06,14.06,0,0,1,1.76-2.27c2.19-2.46,4.91-5.52,4.73-13.25,0-1.3,0-3.61.08-6.13.09-3.87.17-8.21.05-10.55-.65-11.48-10.42-16.16-15.34-17-31.44-6.71-69.19-8.66-109-5.68l-2.08.15c-24.31,1.79-37.7,2.77-53.66,10.2-3.7,1.72-7.51,3.67-10.88,5.47-6,3.22-14.66,6.7-19.32,7.76-1.91.44-3.84.88-5.54,1.23a27.37,27.37,0,0,1-9.51,0c-1.67-.36-3.54-.77-5.4-1.2C245.27,77.68,236.6,74.2,230.6,71c-3.37-1.79-7.18-3.75-10.88-5.47-16-7.43-29.34-8.41-53.65-10.2L164,55.16c-39.86-3-77.66-1-108.88,5.66-5.07.86-14.83,5.53-15.48,17-.14,2.34,0,6.69,0,10.55C39.7,90.92,39.75,93.23,39.72,94.51Zm432-14.26v8.5L461.56,84.5ZM295.05,92.44c1.54-4,11.23-17.21,71.37-20.85,10.54-.64,19.48-1,27.34-1,35.46,0,46.75,6.63,53.46,17.31,4,6.4,6.75,19.77,6.78,28.25.08,18.51-3.51,51.42-28.2,63.86-11.32,5.7-28.29,9.1-45.39,9.1-32.83,0-59.06-11.6-70.17-31C286.87,117.34,294.76,93.12,295.05,92.44ZM73,88c6.72-10.69,18-17.32,53.46-17.32,7.86,0,16.8.32,27.35,1C214,75.23,223.67,88.47,225.4,92.9c.09.22,8,24.45-15.36,65.25-11.12,19.41-37.35,31-70.17,31-17.1,0-34.08-3.4-45.4-9.1-24.69-12.44-28.27-45.35-28.2-63.86C66.3,107.71,69,94.34,73,88Zm-24.3-7.7L58.91,84.5,48.74,88.74Z"/><path class="cls-1" d="M287.74.54v17h11.33a11.34,11.34,0,0,1-11.33,11.33v5.67a17,17,0,0,0,17-17V.54Z"/><path class="cls-1" d="M264.74,17.54h11.33a11.34,11.34,0,0,1-11.33,11.33v5.67a17,17,0,0,0,17-17V.54h-17Z"/><path class="cls-2" d="M444.42,275.41a4.26,4.26,0,0,0,3.87,2.9,3.71,3.71,0,0,0,1.74-.44l51.53-27.12a5.07,5.07,0,0,0,2.49-4.64,4.94,4.94,0,0,0-2.72-4.46l-51.53-23c-2.18-1-4.63.3-5.47,2.84a5.21,5.21,0,0,0,2.44,6.37l42.05,18.78-42.28,22.26A5.3,5.3,0,0,0,444.42,275.41Z"/><path class="cls-1" d="M58.73,221.18a4.27,4.27,0,0,0-3.95-2.79,3.73,3.73,0,0,0-1.73.5L2.36,247.54A5,5,0,0,0,0,252.25a4.93,4.93,0,0,0,2.85,4.37l52.19,21.47c2.21.9,4.62-.44,5.38-3a5.2,5.2,0,0,0-2.62-6.29l-42.6-17.51,41.6-23.51A5.3,5.3,0,0,0,58.73,221.18Z"/><path class="cls-1" d="M97.11,220.38,67.28,272.64A4,4,0,0,0,68.44,278a3.4,3.4,0,0,0,1.88.58,3.52,3.52,0,0,0,3.05-1.84l29.84-52.25a4.06,4.06,0,0,0-1.17-5.33A3.43,3.43,0,0,0,97.11,220.38Z"/><text class="cls-3" transform="translate(98.68 266.59) scale(1.37 1)">CambelD<tspan class="cls-4" x="194.46" y="0">e</tspan><tspan class="cls-5" x="219.12" y="0">v</tspan></text><path class="cls-1" d="M214.74,35.41l-.14-17.87-11.16.09a11.56,11.56,0,0,1,11.3-11.78L214.69,0a17.33,17.33,0,0,0-16.95,17.68l.14,17.86Z"/><path class="cls-1" d="M237.6,17.54l-11.16.09a11.56,11.56,0,0,1,11.3-11.78L237.69,0a17.33,17.33,0,0,0-16.95,17.68l.14,17.86,16.86-.13Z"/></g></g></svg>